<?xml version="1.0" encoding="UTF-8" standalone="no"?>
<!-- Created with Inkscape (http://www.inkscape.org/) -->

<svg
   width="104.39076mm"
   height="50.436569mm"
   viewBox="0 0 369.88854 178.71225"
   id="svg4242"
   version="1.1"
   inkscape:version="1.1 (c68e22c387, 2021-05-23)"
   sodipodi:docname="Kalbe_Nutritionals.svg"
   xmlns:inkscape="http://www.inkscape.org/namespaces/inkscape"
   xmlns:sodipodi="http://sodipodi.sourceforge.net/DTD/sodipodi-0.dtd"
   xmlns="http://www.w3.org/2000/svg"
   xmlns:svg="http://www.w3.org/2000/svg"
   xmlns:rdf="http://www.w3.org/1999/02/22-rdf-syntax-ns#"
   xmlns:cc="http://creativecommons.org/ns#"
   xmlns:dc="http://purl.org/dc/elements/1.1/">
  <defs
     id="defs4244">
    <clipPath
       clipPathUnits="userSpaceOnUse"
       id="clipPath18">
      <path
         d="M 0,0 H 595.275 V 841.89 H 0 Z"
         id="path20"
         inkscape:connector-curvature="0" />
    </clipPath>
  </defs>
  <sodipodi:namedview
     id="base"
     pagecolor="#ffffff"
     bordercolor="#666666"
     borderopacity="1.0"
     inkscape:pageopacity="0.0"
     inkscape:pageshadow="2"
     inkscape:zoom="0.49497475"
     inkscape:cx="259.6092"
     inkscape:cy="79.802051"
     inkscape:document-units="px"
     inkscape:current-layer="text24890"
     showgrid="false"
     fit-margin-top="0"
     fit-margin-left="0"
     fit-margin-right="0"
     fit-margin-bottom="0"
     inkscape:window-width="1366"
     inkscape:window-height="715"
     inkscape:window-x="-8"
     inkscape:window-y="-8"
     inkscape:window-maximized="1"
     inkscape:pagecheckerboard="0" />
  <metadata
     id="metadata4247">
    <rdf:RDF>
      <cc:Work
         rdf:about="">
        <dc:format>image/svg+xml</dc:format>
        <dc:type
           rdf:resource="http://purl.org/dc/dcmitype/StillImage" />
      </cc:Work>
    </rdf:RDF>
  </metadata>
  <g
     inkscape:label="Layer 1"
     inkscape:groupmode="layer"
     id="layer1"
     transform="translate(301.5345,-64.74579)">
    <g
       transform="matrix(2.0803055,0,0,-2.0803055,-1204.9125,241.533)"
       id="g14"
       style="fill:#ff0000">
      <g
         id="g16"
         clip-path="url(#clipPath18)"
         style="fill:#ff0000">
        <g
           id="g22"
           transform="translate(508.2645,39.3637)"
           style="fill:#010101;fill-opacity:1">
          <path
             d="m 0,0 c -0.063,-0.09 -0.245,-0.082 -0.245,-0.082 h -3.971 c 0,0 -0.178,0.016 -0.249,0.094 -0.071,0.082 -0.017,0.248 -0.017,0.248 l 0.852,2.631 1.301,3.845 c 0.196,0.11 0.225,0 0.225,0 L 0,0.252 C 0,0.252 0.065,0.088 0,0 M 7.426,-7.5 0.414,11.131 c -0.329,0.691 -0.41,0.99 -1.462,0.99 h -2.38 c -1.054,0 -1.135,-0.299 -1.463,-0.99 L -11.904,-7.5 c -0.242,-0.662 -0.414,-0.98 0.39,-0.98 h 2.995 c 1.097,-0.006 1.091,-0.061 1.367,0.613 l 1.165,3.4 c 0.223,0.24 0.39,0.24 0.39,0.24 h 6.716 c 0,0 0.166,0 0.246,-0.052 L 2.677,-7.867 C 2.951,-8.541 2.945,-8.486 4.041,-8.48 h 2.995 c 0.804,0 0.634,0.318 0.39,0.98 m -35.872,-0.973 c 1.061,0 1.104,0.291 1.104,1.008 l -0.004,5.891 c 0,0 -0.004,0.226 0.128,0.258 0.161,0.043 0.278,-0.149 0.278,-0.149 l 5.62,-6.521 c 0.239,-0.272 0.41,-0.493 0.937,-0.493 h 4.788 c 0.572,0 0.713,0.297 0.233,0.959 l -8.212,8.993 c 0,0 -0.15,0.164 -0.15,0.375 0,0.216 0.156,0.365 0.156,0.365 l 7.852,9.131 c 0.332,0.478 0.194,0.777 -0.378,0.777 h -4.322 c -0.527,0 -0.695,-0.223 -0.938,-0.492 l -5.71,-6.484 c -0.282,-0.067 -0.282,0.078 -0.282,0.078 l 0.004,5.882 c 0,0.723 -0.043,1.016 -1.104,1.016 h -2.369 c -1.062,0 -1.11,-0.293 -1.11,-1.016 v -18.57 c 0,-0.717 0.048,-1.008 1.11,-1.008 z m 86.165,16.35 h 5.572 c 0.712,0 1.01,0.047 1.01,1.027 V 11.1 c 0,0.982 -0.298,1.021 -1.01,1.021 l -9.562,0.004 c -0.718,0 -1.011,-0.043 -1.011,-1.094 V -7.381 c 0,-1.055 0.293,-1.098 1.011,-1.098 h 9.562 c 0.712,0 1.01,0.041 1.01,1.026 v 2.176 c 0,0.984 -0.298,1.023 -1.01,1.023 l -5.572,0.008 c 0,0 -0.418,-0.018 -0.445,0.492 v 3.311 c 0.017,0.377 0.241,0.455 0.365,0.472 h 4.425 c 0.714,0 1.009,0.051 1.009,1.032 v 1.781 c 0,0.98 -0.295,1.021 -1.009,1.021 L 57.698,3.861 c 0,0 -0.397,-0.017 -0.424,0.491 v 3.037 c 0.027,0.5 0.445,0.488 0.445,0.488 M 41.923,2.711 c 0.959,0.57 2.394,2.146 2.394,4.211 0,0.119 0,0.244 -0.011,0.363 -0.167,2.922 -2.297,4.836 -5.61,4.836 h -6.555 c -1.055,0 -1.101,-0.293 -1.101,-1.017 V -7.457 c 0,-0.725 0.046,-1.022 1.101,-1.022 h 6.83 c 4.916,0 6.972,2.868 6.972,6.071 0,2.513 -1.576,4.635 -4.02,5.119 m -6.324,5.402 h 2.083 c 1.317,0 2.079,-0.654 2.079,-1.898 0,-1.246 -0.79,-1.893 -2.079,-1.893 h -2.083 z m 2.868,-12.529 h -2.868 v 4.129 h 2.868 c 1.35,0 2.758,-0.535 2.758,-2.068 0,-1.53 -1.242,-2.061 -2.758,-2.061 m -14.805,0.162 -5.693,0.008 c 0,0 -0.447,-0.02 -0.466,0.512 l 0.003,14.845 c 0,0.717 -0.046,1.01 -1.099,1.01 h -2.356 c -1.055,0 -1.101,-0.293 -1.101,-1.01 V -6.676 c 0,-1.461 0.399,-1.803 1.771,-1.803 h 8.941 c 0.723,0 1.009,0.041 1.009,1.026 v 2.176 c 0,0.984 -0.286,1.023 -1.009,1.023"
             style="fill:#010101;fill-opacity:1;fill-rule:nonzero;stroke:none"
             id="path24"
             inkscape:connector-curvature="0" />
        </g>
        <g
           id="g26"
           transform="translate(457.9412,30.7855)"
           style="fill:#87bd40;fill-opacity:1">
          <path
             d="m 0,0 c -0.429,0.271 -0.383,1.158 -0.516,1.631 -3.236,11.318 -20.32,15.213 -17.673,28.068 0.302,1.432 0.556,2.989 1.55,4.369 0.292,0.407 1.332,0.965 0.831,-0.683 -0.867,-2.83 -0.713,-5.709 2.212,-9.168 1.451,-1.709 3.899,-3.354 7.52,-5.793 C 0.941,13.697 1.777,5.199 1.408,2.176 1.268,0.791 1.031,-0.658 0,0"
             style="fill:#87bd40;fill-opacity:1;fill-rule:nonzero;stroke:none"
             id="path28"
             inkscape:connector-curvature="0" />
        </g>
        <g
           id="g30"
           transform="translate(446.3279,81.0434)"
           style="fill:#076535;fill-opacity:1">
          <path
             d="m 0,0 c 0.298,-1.211 1.133,-2.947 3.386,-4.328 3.558,-2.188 5.071,-3.797 5.636,-4.375 4.163,-4.264 3.682,-8.174 2.586,-12.375 -0.406,-0.967 0.076,-1.986 1.212,-0.217 1.274,1.981 2.002,3.043 2.56,5.41 0.685,2.949 0.929,6.916 -3.932,10.844 -1.024,0.83 -2.092,1.535 -4.719,2.449 C 6.236,-2.422 3.508,-1.479 1.156,0.32 0.36,0.93 -0.222,0.879 0,0"
             style="fill:#076535;fill-opacity:1;fill-rule:nonzero;stroke:none"
             id="path32"
             inkscape:connector-curvature="0" />
        </g>
        <g
           id="g34"
           transform="translate(457.6522,82.227)"
           style="fill:#076535;fill-opacity:1">
          <path
             d="m 0,0 c 0.196,-0.398 0.154,-0.908 0.018,-1.359 -0.2,-0.653 -0.493,-1.157 -1.164,-1.34 -0.382,-0.1 -0.911,-0.108 -1.328,0.008 -1.154,0.32 -1.675,1.341 -1.366,2.375 0.303,1.033 1.33,1.689 2.485,1.379 C -0.699,0.879 -0.254,0.533 0,0"
             style="fill:#076535;fill-opacity:1;fill-rule:nonzero;stroke:none"
             id="path36"
             inkscape:connector-curvature="0" />
        </g>
        <g
           id="g38"
           transform="translate(443.9158,43.1859)"
           style="fill:#076535;fill-opacity:1">
          <path
             d="m 0,0 c -4.915,-5.27 -5.686,-11.125 -4.934,-16.623 0.167,-1.273 0.3,-2.529 0.316,-3.172 0.016,-0.777 -0.853,-1.113 -1.404,-0.31 -1.951,2.828 -3.216,6.144 -3.456,7.959 -0.68,5.195 0.385,10.933 5.331,16.001 1.572,1.608 2.815,2.518 5.036,3.848 1.473,0.885 7.199,2.871 9.056,3.66 2.853,1.203 5.086,2.875 6.203,4.174 0.743,0.863 1.314,0.668 0.815,-0.621 C 15.92,12.172 13.286,8.852 9.586,6.434 6.22,4.242 1.367,1.467 0,0"
             style="fill:#076535;fill-opacity:1;fill-rule:nonzero;stroke:none"
             id="path40"
             inkscape:connector-curvature="0" />
        </g>
        <g
           id="g42"
           transform="translate(446.6268,59.0863)"
           style="fill:#076535;fill-opacity:1">
          <path
             d="M 0,0 C -0.242,-0.529 -0.307,-1.248 -0.139,-1.834 0.105,-2.689 0.6,-3.297 1.43,-3.531 c 0.488,-0.139 1.137,-0.139 1.669,0.01 1.437,0.41 2.092,1.74 1.703,3.095 C 4.417,0.928 3.137,1.785 1.7,1.371 0.875,1.143 0.319,0.689 0,0"
             style="fill:#076535;fill-opacity:1;fill-rule:nonzero;stroke:none"
             id="path44"
             inkscape:connector-curvature="0" />
        </g>
        <g
           id="g46"
           transform="translate(444.0223,62.8637)"
           style="fill:#87bd40;fill-opacity:1">
          <path
             d="m 0,0 c 4.135,7.504 18.565,7.525 19.025,18.939 0.036,0.821 0.052,1.721 -0.213,2.637 -0.139,0.514 -0.691,0.947 -0.864,-0.101 C 17.543,19.063 15.782,14.484 8.235,10.832 1.842,7.742 -0.501,3.512 -1.004,0.676 -1.319,-1.113 -0.38,-0.693 0,0"
             style="fill:#87bd40;fill-opacity:1;fill-rule:nonzero;stroke:none"
             id="path48"
             inkscape:connector-curvature="0" />
        </g>
      </g>
    </g>
    <g
       aria-label="Nutritionals"
       id="text24890"
       style="font-size:56.0382px;line-height:1.25;font-family:'Futura LT Pro';-inkscape-font-specification:'Futura LT Pro';letter-spacing:0.926522px;fill:#81bd40;stroke-width:1.40095">
      <path
         d="m -214.239,241.55275 h 4.70721 v -32.55819 l 32.95046,34.46349 v -44.1581 h -4.70721 v 32.72631 L -214.239,197.50672 Z"
         id="path842" />
      <path
         d="m -162.71,215.2148 h -4.48306 v 15.18635 c 0,7.00477 2.6338,11.8801 10.42311,11.8801 7.78931,0 10.4231,-4.87533 10.4231,-11.8801 V 215.2148 h -4.48305 v 14.682 c 0,4.42702 -0.50435,8.23762 -5.94005,8.23762 -5.43571,0 -5.94005,-3.8106 -5.94005,-8.23762 z"
         id="path844" />
      <path
         d="m -132.53158,219.36162 h 4.7072 v -4.14682 h -4.7072 v -9.47046 h -4.48306 v 9.47046 h -2.74587 v 4.14682 h 2.74587 v 22.19113 h 4.48306 z"
         id="path846" />
      <path
         d="m -118.60422,215.2148 h -4.48305 v 26.33795 h 4.48305 v -13.16898 c 0,-3.41833 0.22415,-9.75064 5.15552,-9.75064 1.1768,0 1.79322,0.56038 2.68983,1.1768 l 2.12945,-4.09079 c -1.28888,-0.7285 -2.52172,-1.23284 -4.03475,-1.23284 -2.91399,0 -4.2589,1.51303 -5.82797,3.58644 h -0.11208 z"
         id="path848" />
      <path
         d="m -97.84022,215.2148 h -4.48306 v 26.33795 h 4.48306 z m -2.24153,-13.11294 c -1.73718,0 -3.19418,1.45699 -3.19418,3.19417 0,1.79323 1.457,3.19418 3.19418,3.19418 1.737186,0 3.194179,-1.40095 3.194179,-3.19418 0,-1.73718 -1.456993,-3.19417 -3.194179,-3.19417 z"
         id="path850" />
      <path
         d="m -82.848158,219.36162 h 4.707209 v -4.14682 h -4.707209 v -9.47046 h -4.483056 v 9.47046 h -2.745872 v 4.14682 h 2.745872 v 22.19113 h 4.483056 z"
         id="path852" />
      <path
         d="m -67.800051,215.2148 h -4.483056 v 26.33795 h 4.483056 z m -2.241528,-13.11294 c -1.737185,0 -3.194178,1.45699 -3.194178,3.19417 0,1.79323 1.456993,3.19418 3.194178,3.19418 1.737184,0 3.194177,-1.40095 3.194177,-3.19418 0,-1.73718 -1.456993,-3.19417 -3.194177,-3.19417 z"
         id="path854" />
      <path
         d="m -46.027375,242.28125 c 7.677234,0 13.841436,-6.10817 13.841436,-13.84144 0,-7.73327 -6.108164,-13.95351 -13.841436,-13.95351 -7.733271,0 -13.841435,6.22024 -13.841435,13.95351 0,7.73327 6.164202,13.84144 13.841435,13.84144 z m 0,-23.64812 c 5.547782,0 9.35838,4.42701 9.35838,9.75064 0,5.37967 -3.810598,9.75065 -9.35838,9.75065 -5.547781,0 -9.358379,-4.37098 -9.358379,-9.75065 0,-5.32363 3.810598,-9.75064 9.358379,-9.75064 z"
         id="path856" />
      <path
         d="m -20.612243,215.2148 h -4.483056 v 26.33795 h 4.483056 v -12.49652 c 0,-4.70721 0.392267,-10.4231 6.556469,-10.4231 5.2115531,0 5.5477823,3.81059 5.5477823,8.0695 v 14.85012 h 4.483056 v -15.63466 c 0,-6.1642 -1.681146,-11.43179 -8.9661123,-11.43179 -3.250215,0 -5.659858,1.40095 -7.509119,3.92267 h -0.112076 z"
         id="path858" />
      <path
         d="m 16.346829,218.63313 c 5.547782,0 8.854036,4.2589 8.854036,9.52649 0,5.32363 -3.026063,9.9748 -8.797998,9.9748 -5.60382,0 -8.6298827,-4.87532 -8.6298827,-10.03084 0,-4.93136 3.3622917,-9.47045 8.5738447,-9.47045 z m 13.112939,-3.41833 h -4.483056 v 3.75455 h -0.112077 c -2.185489,-2.80191 -5.435705,-4.48305 -9.02215,-4.48305 -7.9013861,0 -12.6646331,6.44439 -12.6646331,13.95351 0,7.28497 4.8753234,13.84144 12.6085951,13.84144 3.698521,0 6.780622,-1.457 9.078188,-4.37098 h 0.112077 v 3.64248 h 4.483056 z"
         id="path860" />
      <path
         d="m 43.050903,195.32123 h -4.483056 v 46.23152 h 4.483056 z"
         id="path862" />
      <path
         d="m 66.728912,219.36162 c -1.176802,-2.74587 -3.978712,-4.87532 -7.004775,-4.87532 -4.258903,0 -7.845348,3.02606 -7.845348,7.45308 0,8.29365 11.880099,6.27628 11.880099,12.16029 0,2.40964 -1.849261,4.03475 -4.258904,4.03475 -2.970024,0 -4.258903,-1.73718 -5.379667,-4.20287 l -3.978712,1.68115 c 1.400955,4.14683 4.875323,6.66855 9.302341,6.66855 4.875324,0 8.910074,-3.58645 8.910074,-8.57385 0,-4.42702 -3.026063,-6.27628 -6.108164,-7.56516 -3.082101,-1.28887 -6.108164,-2.18549 -6.108164,-4.59513 0,-1.68114 1.681146,-2.91398 3.250216,-2.91398 1.625108,0 2.970025,1.28887 3.586445,2.68983 z"
         id="path864" />
    </g>
  </g>
</svg>
